/* XPM */
static char *_31fb6a0ac634e34f443798c6d5d8a9bVlZ1XOLslOcp1u6U[] = {
/* columns rows colors chars-per-pixel */
"100 16 8 1 ",
"  c None",
". c black",
"X c #FF7E00",
"o c #FFC20E",
"O c #E5AA7A",
"+ c #B4B4B4",
"@ c gray83",
"# c white",
/* pixels */
"   ++++++++++OOOOOOOOOOOOOOOOOOOOOOOOOOOOOOOOOOOOOOOOOOOOOOOOOOOOOOOOOOOOOOOOOOOOOOOOOOOOOOOOOOOOOOO",
"  ++++####++++OOOOooXXoo#####################################################################ooXXooO",
" +++########+++OOOoXooo#######################################################################oooXoO",
"+++####.#####+++OOXoo###########################################################################ooXO",
"++####.@@#####++OOXo#############################################################################oXO",
"++###.@@@.####+++Ooo#############################################################################ooO",
"+###.@@@@.#####++Oo###############################################################################oO",
"+###..@@@.#####++O#################################################################################O",
"+####..@@.#####++O#################################################################################O",
"+#####..@@.####++Oo###############################################################################oO",
"++#####..@@.##+++Ooo#############################################################################ooO",
"++######....##++OOXo#############################################################################oXO",
"+++##########+++OOXoo###########################################################################ooXO",
" +++########+++OOOoXooo#######################################################################oooXoO",
"  ++++####++++OOOOooXXoo#####################################################################ooXXooO",
"   ++++++++++OOOOOOOOOOOOOOOOOOOOOOOOOOOOOOOOOOOOOOOOOOOOOOOOOOOOOOOOOOOOOOOOOOOOOOOOOOOOOOOOOOOOOOO"
};
